<svg width="1751" height="453" viewBox="0 0 1751 453" fill="none" xmlns="http://www.w3.org/2000/svg">
<path d="M1751 76V453H0V76H778.55C790.37 76 800.51 67.91 803.53 56.49C812.14 23.97 841.78 0 877 0C912.22 0 941.86 23.97 950.47 56.49C953.5 67.91 963.63 76 975.45 76H1751Z" fill="#141736"/>
<g filter="url(#filter0_d_253_1419)">
<circle cx="877" cy="77" r="52" fill="#0177FB"/>
</g>
<g filter="url(#filter1_d_253_1419)">
<path d="M862.25 79.8333C862.25 83.2675 863.635 86.3782 865.876 88.6374C866.093 88.8553 866.201 88.9642 866.265 89.069C866.325 89.169 866.361 89.255 866.388 89.3689C866.417 89.4882 866.417 89.6239 866.417 89.8955V94.8333C866.417 95.4167 866.417 95.7084 866.53 95.9312C866.63 96.1272 866.789 96.2866 866.985 96.3865C867.208 96.5 867.5 96.5 868.083 96.5H872.042C872.625 96.5 872.917 96.5 873.139 96.3865C873.335 96.2866 873.495 96.1272 873.595 95.9312C873.708 95.7084 873.708 95.4167 873.708 94.8333V94C873.708 93.4166 873.708 93.1249 873.822 92.9021C873.922 92.7061 874.081 92.5467 874.277 92.4469C874.5 92.3333 874.791 92.3333 875.375 92.3333H878.292C878.875 92.3333 879.167 92.3333 879.389 92.4469C879.585 92.5467 879.745 92.7061 879.845 92.9021C879.958 93.1249 879.958 93.4166 879.958 94V94.8333C879.958 95.4167 879.958 95.7084 880.072 95.9312C880.172 96.1272 880.331 96.2866 880.527 96.3865C880.75 96.5 881.041 96.5 881.625 96.5H885.583C886.167 96.5 886.458 96.5 886.681 96.3865C886.877 96.2866 887.037 96.1272 887.136 95.9312C887.25 95.7084 887.25 95.4167 887.25 94.8333V92.8007C887.25 92.3797 887.25 92.1692 887.31 92.0003C887.367 91.8383 887.44 91.725 887.562 91.6047C887.69 91.4792 887.907 91.3785 888.341 91.1771C890.387 90.2271 892.133 88.7397 893.398 86.8962C893.621 86.572 893.732 86.4099 893.851 86.3141C893.964 86.2226 894.066 86.1689 894.206 86.1271C894.352 86.0833 894.525 86.0833 894.872 86.0833H896C896.583 86.0833 896.875 86.0833 897.098 85.9698C897.294 85.8699 897.453 85.7106 897.553 85.5146C897.667 85.2917 897.667 85.0001 897.667 84.4167V77.3036C897.667 76.7482 897.667 76.4705 897.563 76.2563C897.461 76.0437 897.29 75.8722 897.077 75.7698C896.863 75.6667 896.585 75.6667 896.03 75.6667C895.628 75.6667 895.427 75.6667 895.265 75.6121C895.09 75.5532 894.968 75.475 894.841 75.3412C894.724 75.2171 894.628 75.0097 894.436 74.5947C893.82 73.263 892.977 72.0579 891.957 71.0292C891.741 70.8114 891.632 70.7024 891.569 70.5977C891.508 70.4977 891.472 70.4116 891.445 70.2978C891.417 70.1785 891.417 70.0427 891.417 69.7712V67.4595C891.417 66.7094 891.417 66.3344 891.26 66.0823C891.124 65.8615 890.909 65.6997 890.659 65.6288C890.374 65.5479 890.013 65.6509 889.292 65.857L884.349 67.2692C884.265 67.2932 884.223 67.3052 884.181 67.3136C884.143 67.3211 884.104 67.3265 884.066 67.3297C884.022 67.3333 883.979 67.3333 883.891 67.3333H882.998M862.25 79.8333C862.25 75.0332 864.956 70.865 868.925 68.7706M862.25 79.8333H860.167C857.865 79.8333 856 77.9679 856 75.6667C856 74.1244 856.838 72.7779 858.083 72.0574M883.083 66.2917C883.083 70.3187 879.819 73.5833 875.792 73.5833C871.765 73.5833 868.5 70.3187 868.5 66.2917C868.5 62.2646 871.765 59 875.792 59C879.819 59 883.083 62.2646 883.083 66.2917Z" stroke="white" stroke-width="2.82034" stroke-linecap="round" stroke-linejoin="round" shape-rendering="crispEdges"/>
</g>
<defs>
<filter id="filter0_d_253_1419" x="804" y="7" width="156" height="156" filterUnits="userSpaceOnUse" color-interpolation-filters="sRGB">
<feFlood flood-opacity="0" result="BackgroundImageFix"/>
<feColorMatrix in="SourceAlpha" type="matrix" values="0 0 0 0 0 0 0 0 0 0 0 0 0 0 0 0 0 0 127 0" result="hardAlpha"/>
<feOffset dx="5" dy="8"/>
<feGaussianBlur stdDeviation="13"/>
<feComposite in2="hardAlpha" operator="out"/>
<feColorMatrix type="matrix" values="0 0 0 0 0.00392157 0 0 0 0 0.466667 0 0 0 0 0.984314 0 0 0 0.32 0"/>
<feBlend mode="normal" in2="BackgroundImageFix" result="effect1_dropShadow_253_1419"/>
<feBlend mode="normal" in="SourceGraphic" in2="effect1_dropShadow_253_1419" result="shape"/>
</filter>
<filter id="filter1_d_253_1419" x="821.29" y="28.2898" width="111.087" height="106.92" filterUnits="userSpaceOnUse" color-interpolation-filters="sRGB">
<feFlood flood-opacity="0" result="BackgroundImageFix"/>
<feColorMatrix in="SourceAlpha" type="matrix" values="0 0 0 0 0 0 0 0 0 0 0 0 0 0 0 0 0 0 127 0" result="hardAlpha"/>
<feOffset dy="4"/>
<feGaussianBlur stdDeviation="16.65"/>
<feComposite in2="hardAlpha" operator="out"/>
<feColorMatrix type="matrix" values="0 0 0 0 1 0 0 0 0 1 0 0 0 0 1 0 0 0 0.4 0"/>
<feBlend mode="normal" in2="BackgroundImageFix" result="effect1_dropShadow_253_1419"/>
<feBlend mode="normal" in="SourceGraphic" in2="effect1_dropShadow_253_1419" result="shape"/>
</filter>
</defs>
</svg>
