<svg width="156" height="156" viewBox="0 0 156 156" fill="none" xmlns="http://www.w3.org/2000/svg">
<g filter="url(#filter0_d_204_1421)">
<circle cx="73" cy="70" r="52" fill="#0177FB"/>
</g>
<g filter="url(#filter1_d_204_1421)">
<path d="M58.2499 72.8333C58.2499 76.2675 59.6347 79.3782 61.8764 81.6374C62.0926 81.8553 62.2007 81.9642 62.2645 82.069C62.3254 82.169 62.3608 82.255 62.388 82.3689C62.4165 82.4882 62.4165 82.6239 62.4165 82.8955V87.8333C62.4165 88.4167 62.4165 88.7084 62.5301 88.9312C62.6299 89.1272 62.7893 89.2866 62.9853 89.3865C63.2081 89.5 63.4998 89.5 64.0832 89.5H68.0415C68.6249 89.5 68.9166 89.5 69.1394 89.3865C69.3354 89.2866 69.4948 89.1272 69.5947 88.9312C69.7082 88.7084 69.7082 88.4167 69.7082 87.8333V87C69.7082 86.4166 69.7082 86.1249 69.8217 85.9021C69.9216 85.7061 70.0809 85.5467 70.2769 85.4469C70.4998 85.3333 70.7915 85.3333 71.3749 85.3333H74.2915C74.8749 85.3333 75.1666 85.3333 75.3894 85.4469C75.5854 85.5467 75.7448 85.7061 75.8447 85.9021C75.9582 86.1249 75.9582 86.4166 75.9582 87V87.8333C75.9582 88.4167 75.9582 88.7084 76.0717 88.9312C76.1716 89.1272 76.3309 89.2866 76.5269 89.3865C76.7498 89.5 77.0415 89.5 77.6249 89.5H81.5833C82.1667 89.5 82.4584 89.5 82.6812 89.3865C82.8772 89.2866 83.0366 89.1272 83.1365 88.9312C83.25 88.7084 83.25 88.4167 83.25 87.8333V85.8007C83.25 85.3797 83.25 85.1692 83.3099 85.0003C83.3674 84.8383 83.4397 84.725 83.5624 84.6047C83.6904 84.4792 83.9073 84.3785 84.341 84.1771C86.3873 83.2271 88.1334 81.7397 89.3982 79.8962C89.6206 79.572 89.7318 79.4099 89.8505 79.3141C89.9641 79.2226 90.066 79.1689 90.2057 79.1271C90.3519 79.0833 90.5254 79.0833 90.8724 79.0833H92C92.5834 79.0833 92.8751 79.0833 93.0979 78.9698C93.2939 78.8699 93.4533 78.7106 93.5531 78.5146C93.6667 78.2917 93.6667 78.0001 93.6667 77.4167V70.3036C93.6667 69.7482 93.6667 69.4705 93.5635 69.2563C93.4611 69.0437 93.2896 68.8722 93.077 68.7698C92.8628 68.6667 92.5851 68.6667 92.0297 68.6667C91.6277 68.6667 91.4267 68.6667 91.2648 68.6121C91.0902 68.5532 90.9678 68.475 90.8411 68.3412C90.7237 68.2171 90.6278 68.0097 90.436 67.5947C89.8204 66.263 88.9774 65.0579 87.9568 64.0292C87.7406 63.8114 87.6325 63.7024 87.5687 63.5977C87.5078 63.4977 87.4724 63.4116 87.4452 63.2978C87.4167 63.1785 87.4167 63.0427 87.4167 62.7712V60.4595C87.4167 59.7094 87.4167 59.3344 87.2605 59.0823C87.1236 58.8615 86.9092 58.6997 86.6593 58.6288C86.374 58.5479 86.0134 58.6509 85.2921 58.857L80.3493 60.2692C80.2653 60.2932 80.2233 60.3052 80.1806 60.3136C80.1427 60.3211 80.1044 60.3265 80.0658 60.3297C80.0225 60.3333 79.9788 60.3333 79.8914 60.3333H78.998M58.2499 72.8333C58.2499 68.0332 60.9555 63.865 64.9249 61.7706M58.2499 72.8333H56.1667C53.8655 72.8333 52 70.9679 52 68.6667C52 67.1244 52.8379 65.7779 54.0833 65.0574M79.0833 59.2917C79.0833 63.3187 75.8187 66.5833 71.7917 66.5833C67.7646 66.5833 64.5 63.3187 64.5 59.2917C64.5 55.2646 67.7646 52 71.7917 52C75.8187 52 79.0833 55.2646 79.0833 59.2917Z" stroke="white" stroke-width="2.82034" stroke-linecap="round" stroke-linejoin="round" shape-rendering="crispEdges"/>
</g>
<defs>
<filter id="filter0_d_204_1421" x="0" y="0" width="156" height="156" filterUnits="userSpaceOnUse" color-interpolation-filters="sRGB">
<feFlood flood-opacity="0" result="BackgroundImageFix"/>
<feColorMatrix in="SourceAlpha" type="matrix" values="0 0 0 0 0 0 0 0 0 0 0 0 0 0 0 0 0 0 127 0" result="hardAlpha"/>
<feOffset dx="5" dy="8"/>
<feGaussianBlur stdDeviation="13"/>
<feComposite in2="hardAlpha" operator="out"/>
<feColorMatrix type="matrix" values="0 0 0 0 0.00392157 0 0 0 0 0.466667 0 0 0 0 0.984314 0 0 0 0.32 0"/>
<feBlend mode="normal" in2="BackgroundImageFix" result="effect1_dropShadow_204_1421"/>
<feBlend mode="normal" in="SourceGraphic" in2="effect1_dropShadow_204_1421" result="shape"/>
</filter>
<filter id="filter1_d_204_1421" x="17.2898" y="21.2898" width="111.087" height="106.92" filterUnits="userSpaceOnUse" color-interpolation-filters="sRGB">
<feFlood flood-opacity="0" result="BackgroundImageFix"/>
<feColorMatrix in="SourceAlpha" type="matrix" values="0 0 0 0 0 0 0 0 0 0 0 0 0 0 0 0 0 0 127 0" result="hardAlpha"/>
<feOffset dy="4"/>
<feGaussianBlur stdDeviation="16.65"/>
<feComposite in2="hardAlpha" operator="out"/>
<feColorMatrix type="matrix" values="0 0 0 0 1 0 0 0 0 1 0 0 0 0 1 0 0 0 0.4 0"/>
<feBlend mode="normal" in2="BackgroundImageFix" result="effect1_dropShadow_204_1421"/>
<feBlend mode="normal" in="SourceGraphic" in2="effect1_dropShadow_204_1421" result="shape"/>
</filter>
</defs>
</svg>
