<svg width="91" height="43" viewBox="0 0 91 43" fill="none" xmlns="http://www.w3.org/2000/svg">
<path d="M90.1602 2.70356V7.54356C90.1602 8.54356 89.3401 9.35356 88.3401 9.35356C87.3401 9.35356 86.5102 8.54356 86.5102 7.54356V4.51356H83.2302C82.2302 4.51356 81.4102 3.70356 81.4102 2.70356C81.4102 1.70356 82.2302 0.903564 83.2302 0.903564H88.3401C89.3401 0.903564 90.1602 1.71356 90.1602 2.70356Z" fill="#0177FB"/>
<path d="M55.0202 12.6834V25.1634C55.0202 26.8234 53.6502 28.1734 51.9802 28.1734H51.8102C50.1302 28.1734 48.7702 26.8234 48.7702 25.1634V12.6834C48.7702 9.37344 45.8702 6.68344 42.3102 6.68344C38.7502 6.68344 35.8402 9.37344 35.8402 12.6834V25.1634C35.8402 26.8234 34.4802 28.1734 32.8002 28.1734H32.6302C30.9502 28.1734 29.5902 26.8234 29.5902 25.1634V12.8634C29.5902 9.73344 27.2602 7.00344 24.1302 6.71344C22.7002 6.58344 21.3602 6.94344 20.2702 7.64344V3.59344C20.2702 2.80344 20.1202 2.03344 19.8202 1.30344C19.8002 1.24344 19.7702 1.18344 19.7402 1.12344C21.0002 0.69344 22.3502 0.47344 23.7502 0.49344C27.3402 0.55344 30.5602 2.14344 32.7702 4.63344C35.1002 2.09344 38.5102 0.49344 42.3102 0.49344C49.3202 0.49344 55.0202 5.96344 55.0202 12.6834Z" fill="#131635"/>
<path d="M76.23 28.5035C67.83 28.5035 61 22.0235 61 14.0635C61 7.36348 65.83 1.71348 72.37 0.0934826C74.33 -0.396517 76.23 1.10348 76.23 3.10348C76.23 4.53348 75.24 5.75348 73.85 6.10348C70.05 7.06348 67.25 10.2635 67.25 14.0535C67.25 18.6035 71.28 22.3035 76.23 22.3035C80.34 22.3035 83.8 19.7635 84.87 16.3035C85.28 14.9835 86.48 14.0535 87.87 14.0535C89.98 14.0535 91.47 16.0735 90.85 18.0735C89.01 24.0835 83.15 28.4935 76.22 28.4935L76.23 28.5035Z" fill="#131635"/>
<path d="M76.2302 42.8534C69.7402 42.8534 64.3102 39.9134 62.0902 35.6534C61.0502 33.6634 62.5402 31.2834 64.8102 31.2834H65.0802C66.1902 31.2834 67.1702 31.9234 67.7202 32.8834C68.8702 34.8834 72.0502 36.6634 76.2402 36.6634C80.4302 36.6634 83.6102 34.8834 84.7602 32.8834C85.3102 31.9234 86.2802 31.2834 87.4002 31.2834H87.6702C89.9302 31.2834 91.4302 33.6634 90.3902 35.6534C88.1602 39.9134 82.7402 42.8534 76.2502 42.8534H76.2302Z" fill="#131635"/>
<path d="M17.2699 3.59349V25.5535C17.2699 26.4235 16.9099 27.2135 16.3299 27.7835C15.7599 28.3435 14.9699 28.6935 14.0999 28.6935C13.2299 28.6935 12.4499 28.3435 11.8799 27.7835C11.8799 27.7835 11.8799 27.7735 11.8699 27.7735C11.6099 27.5135 11.3899 27.2035 11.2399 26.8735C11.0499 26.4735 10.9399 26.0235 10.9399 25.5535V3.59349C10.9399 1.86349 12.3599 0.453491 14.0999 0.453491C15.4299 0.453491 16.5699 1.26349 17.0399 2.42349C17.1799 2.78349 17.2699 3.17349 17.2699 3.59349Z" fill="#0177FB"/>
<path d="M3.17 0.463491C2.35 0.463491 1.6 0.773491 1.04 1.28349C0.4 1.85349 0 2.68349 0 3.59349V25.5535C0 26.4235 0.36 27.2035 0.93 27.7735C1.5 28.3435 2.29 28.6935 3.17 28.6935C4.05 28.6935 4.9 28.3135 5.47 27.7035C6 27.1435 6.33 26.3835 6.33 25.5535V3.59349C6.33 2.51349 5.78 1.55349 4.94 0.993491C4.44 0.653491 3.82 0.453491 3.17 0.453491V0.463491Z" fill="#131635"/>
</svg>
